<?xml version="1.0" encoding="UTF-8" standalone="no"?>
<!-- Generator: Gravit.io -->

<svg
   xmlns:dc="http://purl.org/dc/elements/1.1/"
   xmlns:cc="http://creativecommons.org/ns#"
   xmlns:rdf="http://www.w3.org/1999/02/22-rdf-syntax-ns#"
   xmlns:svg="http://www.w3.org/2000/svg"
   xmlns="http://www.w3.org/2000/svg"
   xmlns:sodipodi="http://sodipodi.sourceforge.net/DTD/sodipodi-0.dtd"
   xmlns:inkscape="http://www.inkscape.org/namespaces/inkscape"
   style="isolation:isolate"
   viewBox="0 0 444.74918 349.13674"
   width="444.74918"
   height="349.13675"
   version="1.1"
   id="svg3840"
   sodipodi:docname="logo.svg"
   inkscape:version="0.92.4 (5da689c313, 2019-01-14)">
  <metadata
     id="metadata3844">
    <rdf:RDF>
      <cc:Work
         rdf:about="">
        <dc:format>image/svg+xml</dc:format>
        <dc:type
           rdf:resource="http://purl.org/dc/dcmitype/StillImage" />
        <dc:title></dc:title>
      </cc:Work>
    </rdf:RDF>
  </metadata>
  <sodipodi:namedview
     pagecolor="#ffffff"
     bordercolor="#666666"
     borderopacity="1"
     objecttolerance="10"
     gridtolerance="10"
     guidetolerance="10"
     inkscape:pageopacity="0"
     inkscape:pageshadow="2"
     inkscape:window-width="1920"
     inkscape:window-height="1178"
     id="namedview3842"
     showgrid="false"
     fit-margin-top="0"
     fit-margin-left="0"
     fit-margin-right="0"
     fit-margin-bottom="0"
     inkscape:pagecheckerboard="true"
     inkscape:zoom="1.5857387"
     inkscape:cx="232.18106"
     inkscape:cy="187.50689"
     inkscape:window-x="1072"
     inkscape:window-y="1072"
     inkscape:window-maximized="1"
     inkscape:current-layer="svg3840">
    <inkscape:grid
       type="xygrid"
       id="grid3846" />
  </sodipodi:namedview>
  <defs
     id="defs3830">
    <clipPath
       id="_clipPath_aYiZ8Sok1MfAZMCNgeDBC5guWKlP3aaR">
      <rect
         width="595.276"
         height="841.89001"
         id="rect3827"
         x="0"
         y="0" />
    </clipPath>
  </defs>
  <g
     clip-path="url(#_clipPath_aYiZ8Sok1MfAZMCNgeDBC5guWKlP3aaR)"
     id="g3838"
     transform="translate(-81.499988,-223.55826)">
    <path
       d="m 97,479.64 h 414.994 c 7.68,0.084 9.719,2.543 9.75,8.93 v 70.695 c 0.145,5.773 -2.422,8.912 -9.75,8.93 H 97 c -8.811,-0.24 -10.92,-3.589 -11,-8.93 V 488.57 c -0.008,-5.497 3.156,-8.846 11,-8.93 z"
       stroke-miterlimit="3"
       id="path3832"
       inkscape:connector-curvature="0"
       style="vector-effect:non-scaling-stroke;fill:none;stroke:#ffffff;stroke-width:9;stroke-linecap:square;stroke-linejoin:miter;stroke-miterlimit:3" />
    <path
       d="m 86,347.07 v 116.625 h 435.75 v -199.5 l -33.375,-21 -33,21 v 135 h -7.5 v -89.25 l -37.125,-23.25 -34.875,23.25 v 89.25 H 368 v -41.25 L 348.875,326.82 h -15.75 v -12.375 h -23.25 V 326.82 H 295.25 l -18,31.125 v 41.25 h -7.125 v -35.25 L 233.5,223.695 193.625,363.945 v 35.25 H 185.75 V 347.07 l -51.375,-32.625 z"
       stroke-miterlimit="3"
       id="path3834"
       inkscape:connector-curvature="0"
       style="vector-effect:non-scaling-stroke;fill:#ffffff;stroke:#ffffff;stroke-width:1;stroke-linecap:square;stroke-linejoin:miter;stroke-miterlimit:3" />
    <path
       d="m 148.398,542.468 h -16.687 l -9.586,-25.289 -3.563,-0.562 v -10.172 h 21.891 v 10.172 l -2.578,0.562 4.055,13.336 4.054,-13.336 -2.578,-0.562 v -10.172 h 18.117 v 10.172 l -3.539,0.562 z m 48.352,-0.023 h -12.539 l -1.172,-5.555 h -9.211 l -1.172,5.555 H 160.117 V 531.57 l 2.719,-0.539 6.492,-21.586 h 18.188 l 6.539,21.586 2.695,0.539 z m -18.328,-25.922 -3.164,12.961 h 6.351 z m 38.719,2.695 v 14.227 0 q 0.984,0 1.875,-0.27 v 0 0 q 0.89,-0.269 1.652,-0.703 v 0 0 q 0.762,-0.434 1.383,-0.961 v 0 0 q 0.621,-0.527 1.09,-1.066 v 0 h 3.914 v 12 h -26.813 v -9.352 l 2.813,-0.539 v -13.336 l -2.813,-0.539 v -9.234 h 19.735 v 9.234 z m 50.976,-0.539 -2.836,0.539 v 0 q -0.023,0.703 -0.023,1.371 v 0 0 q 0,0.668 0,1.278 v 0 3.632 0 q 0,4.688 -1.289,8.028 v 0 0 q -1.289,3.34 -3.492,5.472 v 0 0 q -2.204,2.133 -5.168,3 v 0 0 q -2.965,0.868 -6.293,0.868 v 0 0 q -3.844,0 -7.184,-0.868 v 0 0 q -3.34,-0.867 -5.812,-3.011 v 0 0 q -2.473,-2.145 -3.891,-5.473 v 0 0 q -1.418,-3.328 -1.418,-8.016 v 0 -6.281 l -2.813,-0.539 v -9.234 h 18.305 v 9.234 l -2.812,0.539 v 2.789 0 q 0,0.563 0,1.137 v 0 0 q 0,0.574 0.011,1.066 v 0 0 q 0.012,0.492 0.012,0.856 v 0 0 q 0,0.363 0,0.48 v 0 0 q 0,0.539 0.023,1.254 v 0 0 q 0.024,0.715 0.188,1.477 v 0 0 q 0.164,0.761 0.504,1.5 v 0 0 q 0.34,0.738 0.961,1.324 v 0 0 q 0.621,0.586 1.57,0.949 v 0 0 q 0.949,0.363 2.356,0.363 v 0 0 q 1.406,0 2.379,-0.363 v 0 0 q 0.972,-0.363 1.593,-0.961 v 0 0 q 0.621,-0.597 0.973,-1.347 v 0 0 q 0.351,-0.75 0.504,-1.512 v 0 0 q 0.152,-0.762 0.187,-1.477 v 0 0 q 0.035,-0.715 0.035,-1.254 v 0 0 q 0,-0.164 0,-0.527 v 0 0 q 0,-0.363 -0.011,-0.844 v 0 0 q -0.012,-0.48 -0.012,-1.031 v 0 0 q 0,-0.551 0,-1.09 v 0 -2.789 l -2.812,-0.539 v -9.234 h 16.265 z m 20.555,0.188 v 5.085 l 6.492,-1.382 v 6.679 l -6.492,-1.406 v 5.18 0 q 1.406,0 2.719,-0.199 v 0 0 q 1.312,-0.2 2.437,-0.551 v 0 0 q 1.125,-0.352 2.063,-0.821 v 0 0 q 0.937,-0.468 1.617,-1.007 v 0 h 3.211 v 12 H 271.75 v -9.352 l 2.812,-0.539 v -13.289 l -2.812,-0.539 v -9.281 h 28.969 v 12 h -3.211 v 0 q -0.68,-0.516 -1.617,-0.985 v 0 0 q -0.938,-0.468 -2.063,-0.82 v 0 0 q -1.125,-0.352 -2.437,-0.563 v 0 0 q -1.313,-0.21 -2.719,-0.21 z m 14.367,-12.422 h 33 v 12 h -3.937 v 0 q -0.399,-0.516 -0.915,-1.055 v 0 0 q -0.515,-0.539 -1.148,-0.973 v 0 0 q -0.633,-0.433 -1.383,-0.703 v 0 0 q -0.75,-0.269 -1.617,-0.269 v 0 16.242 l 3,0.586 v 10.172 h -21 v -10.172 l 3,-0.586 v -16.242 0 q -0.867,0 -1.617,0.269 v 0 0 q -0.75,0.27 -1.383,0.703 v 0 0 q -0.633,0.434 -1.148,0.973 v 0 0 q -0.516,0.539 -0.914,1.055 v 0 h -3.938 z m 54.328,36.422 v 0 0 q -4.125,0 -7.722,-0.879 v 0 0 q -3.598,-0.879 -6.258,-3.024 v 0 0 q -2.66,-2.144 -4.196,-5.472 v 0 0 q -1.535,-3.329 -1.535,-7.993 v 0 0 q 0,-4.57 1.535,-7.793 v 0 0 q 1.536,-3.222 4.207,-5.25 v 0 0 q 2.672,-2.027 6.258,-2.964 v 0 0 q 3.586,-0.938 7.711,-0.938 v 0 0 q 4.102,0 7.699,0.938 v 0 0 q 3.598,0.937 6.282,2.964 v 0 0 q 2.683,2.028 4.23,5.25 v 0 0 q 1.547,3.223 1.547,7.793 v 0 0 q 0,3.094 -0.703,5.614 v 0 0 q -0.703,2.519 -1.981,4.476 v 0 0 q -1.277,1.957 -3.07,3.375 v 0 0 q -1.793,1.418 -3.996,2.344 v 0 0 q -2.203,0.926 -4.734,1.242 v 0 0 q -2.532,0.317 -5.274,0.317 z m 0,-24.329 v 0 0 q -1.383,0 -2.332,0.352 v 0 0 q -0.949,0.352 -1.57,0.914 v 0 0 q -0.621,0.563 -0.973,1.289 v 0 0 q -0.351,0.727 -0.504,1.488 v 0 0 q -0.152,0.762 -0.187,1.5 v 0 0 q -0.035,0.739 -0.035,1.301 v 0 0 q 0,0.539 0.023,1.278 v 0 0 q 0.023,0.738 0.164,1.546 v 0 0 q 0.141,0.809 0.469,1.606 v 0 0 q 0.328,0.797 0.949,1.43 v 0 0 q 0.621,0.632 1.594,1.019 v 0 0 q 0.972,0.387 2.402,0.387 v 0 0 q 1.406,0 2.379,-0.375 v 0 0 q 0.973,-0.375 1.594,-0.996 v 0 0 q 0.621,-0.621 0.972,-1.395 v 0 0 q 0.352,-0.773 0.504,-1.558 v 0 0 q 0.153,-0.786 0.188,-1.536 v 0 0 q 0.035,-0.75 0.035,-1.289 v 0 0 q 0,-0.562 -0.035,-1.3 v 0 0 q -0.035,-0.739 -0.188,-1.512 v 0 0 q -0.152,-0.774 -0.504,-1.512 v 0 0 q -0.351,-0.738 -0.972,-1.324 v 0 0 q -0.621,-0.586 -1.594,-0.949 v 0 0 q -0.973,-0.364 -2.379,-0.364 z m 49.266,23.93 H 390.93 l -9,-23.273 -3.352,-0.516 v -9.234 h 21.399 v 9.234 l -2.438,0.516 3.82,12.281 3.821,-12.281 -2.438,-0.516 v -9.234 h 21.399 v 9.234 l -2.414,0.516 3.796,12.281 3.821,-12.281 -2.438,-0.516 v -9.352 h 16.219 v 9.352 l -3.328,0.516 -9,23.273 h -15.68 l -4.265,-12.68 z m 61.711,-0.023 -11.274,-17.321 v 7.43 l 2.836,0.516 v 9.375 h -14.109 v -9.352 l 2.812,-0.539 v -13.336 l -2.812,-0.539 v -9.234 h 16.922 l 11.273,17.789 v -7.969 l -2.812,-0.586 v -9.234 h 14.086 v 9.234 l -2.813,0.539 v 13.336 l 2.813,0.539 v 9.352 z"
       id="path3836"
       inkscape:connector-curvature="0"
       style="fill:#ffffff" />
  </g>
</svg>
